<svg id="visual" viewBox="0 0 960 150" width="960" height="150" xmlns="http://www.w3.org/2000/svg" xmlns:xlink="http://www.w3.org/1999/xlink" version="1.1"><rect x="0" y="0" width="960" height="150" fill="#f1fafc"></rect><path d="M0 46L10 46.3C20 46.7 40 47.3 60 48.3C80 49.3 100 50.7 120 47.3C140 44 160 36 180 32.7C200 29.3 220 30.7 240 35C260 39.3 280 46.7 300 51.2C320 55.7 340 57.3 360 54.3C380 51.3 400 43.7 420 42.2C440 40.7 460 45.3 480 43.8C500 42.3 520 34.7 540 32.5C560 30.3 580 33.7 600 34.2C620 34.7 640 32.3 660 31.2C680 30 700 30 720 34.8C740 39.7 760 49.3 780 50.5C800 51.7 820 44.3 840 37.8C860 31.3 880 25.7 900 26.5C920 27.3 940 34.7 950 38.3L960 42L960 0L950 0C940 0 920 0 900 0C880 0 860 0 840 0C820 0 800 0 780 0C760 0 740 0 720 0C700 0 680 0 660 0C640 0 620 0 600 0C580 0 560 0 540 0C520 0 500 0 480 0C460 0 440 0 420 0C400 0 380 0 360 0C340 0 320 0 300 0C280 0 260 0 240 0C220 0 200 0 180 0C160 0 140 0 120 0C100 0 80 0 60 0C40 0 20 0 10 0L0 0Z" fill="#aac2d6" stroke-linecap="round" stroke-linejoin="miter"></path></svg>