<svg id="visual" viewBox="0 0 960 200" width="960" height="200" xmlns="http://www.w3.org/2000/svg" xmlns:xlink="http://www.w3.org/1999/xlink" version="1.1"><path d="M0 151L7.3 144.8C14.7 138.7 29.3 126.3 43.8 123.8C58.3 121.3 72.7 128.7 87.2 131.7C101.7 134.7 116.3 133.3 131 124.7C145.7 116 160.3 100 174.8 90.3C189.3 80.7 203.7 77.3 218.2 79C232.7 80.7 247.3 87.3 261.8 94C276.3 100.7 290.7 107.3 305.2 109.2C319.7 111 334.3 108 349 103.7C363.7 99.3 378.3 93.7 392.8 89C407.3 84.3 421.7 80.7 436.2 82.8C450.7 85 465.3 93 480 94.8C494.7 96.7 509.3 92.3 523.8 103.7C538.3 115 552.7 142 567.2 159.5C581.7 177 596.3 185 611 180.7C625.7 176.3 640.3 159.7 654.8 157.8C669.3 156 683.7 169 698.2 163.3C712.7 157.7 727.3 133.3 741.8 115.5C756.3 97.7 770.7 86.3 785.2 92.7C799.7 99 814.3 123 829 131.8C843.7 140.7 858.3 134.3 872.8 126C887.3 117.7 901.7 107.3 916.2 100C930.7 92.7 945.3 88.3 952.7 86.2L960 84L960 0L952.7 0C945.3 0 930.7 0 916.2 0C901.7 0 887.3 0 872.8 0C858.3 0 843.7 0 829 0C814.3 0 799.7 0 785.2 0C770.7 0 756.3 0 741.8 0C727.3 0 712.7 0 698.2 0C683.7 0 669.3 0 654.8 0C640.3 0 625.7 0 611 0C596.3 0 581.7 0 567.2 0C552.7 0 538.3 0 523.8 0C509.3 0 494.7 0 480 0C465.3 0 450.7 0 436.2 0C421.7 0 407.3 0 392.8 0C378.3 0 363.7 0 349 0C334.3 0 319.7 0 305.2 0C290.7 0 276.3 0 261.8 0C247.3 0 232.7 0 218.2 0C203.7 0 189.3 0 174.8 0C160.3 0 145.7 0 131 0C116.3 0 101.7 0 87.2 0C72.7 0 58.3 0 43.8 0C29.3 0 14.7 0 7.3 0L0 0Z" fill="#9da6b3"></path><path d="M0 175L7.3 175.3C14.7 175.7 29.3 176.3 43.8 172.7C58.3 169 72.7 161 87.2 142.3C101.7 123.7 116.3 94.3 131 79.2C145.7 64 160.3 63 174.8 74C189.3 85 203.7 108 218.2 122C232.7 136 247.3 141 261.8 141.7C276.3 142.3 290.7 138.7 305.2 141.7C319.7 144.7 334.3 154.3 349 147.8C363.7 141.3 378.3 118.7 392.8 111.3C407.3 104 421.7 112 436.2 122.3C450.7 132.7 465.3 145.3 480 153.3C494.7 161.3 509.3 164.7 523.8 157.7C538.3 150.7 552.7 133.3 567.2 129.2C581.7 125 596.3 134 611 134.7C625.7 135.3 640.3 127.7 654.8 123.5C669.3 119.3 683.7 118.7 698.2 122C712.7 125.3 727.3 132.7 741.8 131.3C756.3 130 770.7 120 785.2 113.7C799.7 107.3 814.3 104.7 829 97.5C843.7 90.3 858.3 78.7 872.8 76.3C887.3 74 901.7 81 916.2 86.2C930.7 91.3 945.3 94.7 952.7 96.3L960 98L960 0L952.7 0C945.3 0 930.7 0 916.2 0C901.7 0 887.3 0 872.8 0C858.3 0 843.7 0 829 0C814.3 0 799.7 0 785.2 0C770.7 0 756.3 0 741.8 0C727.3 0 712.7 0 698.2 0C683.7 0 669.3 0 654.8 0C640.3 0 625.7 0 611 0C596.3 0 581.7 0 567.2 0C552.7 0 538.3 0 523.8 0C509.3 0 494.7 0 480 0C465.3 0 450.7 0 436.2 0C421.7 0 407.3 0 392.8 0C378.3 0 363.7 0 349 0C334.3 0 319.7 0 305.2 0C290.7 0 276.3 0 261.8 0C247.3 0 232.7 0 218.2 0C203.7 0 189.3 0 174.8 0C160.3 0 145.7 0 131 0C116.3 0 101.7 0 87.2 0C72.7 0 58.3 0 43.8 0C29.3 0 14.7 0 7.3 0L0 0Z" fill="#969fad"></path><path d="M0 116L7.3 110.3C14.7 104.7 29.3 93.3 43.8 85.3C58.3 77.3 72.7 72.7 87.2 68.2C101.7 63.7 116.3 59.3 131 57.2C145.7 55 160.3 55 174.8 69.7C189.3 84.3 203.7 113.7 218.2 130.8C232.7 148 247.3 153 261.8 157C276.3 161 290.7 164 305.2 155.2C319.7 146.3 334.3 125.7 349 125.2C363.7 124.7 378.3 144.3 392.8 142.7C407.3 141 421.7 118 436.2 100.7C450.7 83.3 465.3 71.7 480 77.8C494.7 84 509.3 108 523.8 125.5C538.3 143 552.7 154 567.2 156C581.7 158 596.3 151 611 143C625.7 135 640.3 126 654.8 113.5C669.3 101 683.7 85 698.2 76.3C712.7 67.7 727.3 66.3 741.8 65.7C756.3 65 770.7 65 785.2 77.7C799.7 90.3 814.3 115.7 829 129.3C843.7 143 858.3 145 872.8 148.8C887.3 152.7 901.7 158.3 916.2 155C930.7 151.7 945.3 139.3 952.7 133.2L960 127L960 0L952.7 0C945.3 0 930.7 0 916.2 0C901.7 0 887.3 0 872.8 0C858.3 0 843.7 0 829 0C814.3 0 799.7 0 785.2 0C770.7 0 756.3 0 741.8 0C727.3 0 712.7 0 698.2 0C683.7 0 669.3 0 654.8 0C640.3 0 625.7 0 611 0C596.3 0 581.7 0 567.2 0C552.7 0 538.3 0 523.8 0C509.3 0 494.7 0 480 0C465.3 0 450.7 0 436.2 0C421.7 0 407.3 0 392.8 0C378.3 0 363.7 0 349 0C334.3 0 319.7 0 305.2 0C290.7 0 276.3 0 261.8 0C247.3 0 232.7 0 218.2 0C203.7 0 189.3 0 174.8 0C160.3 0 145.7 0 131 0C116.3 0 101.7 0 87.2 0C72.7 0 58.3 0 43.8 0C29.3 0 14.7 0 7.3 0L0 0Z" fill="#8f98a7"></path><path d="M0 76L7.3 82.8C14.7 89.7 29.3 103.3 43.8 104.2C58.3 105 72.7 93 87.2 97C101.7 101 116.3 121 131 123.8C145.7 126.7 160.3 112.3 174.8 104.2C189.3 96 203.7 94 218.2 100.8C232.7 107.7 247.3 123.3 261.8 130.8C276.3 138.3 290.7 137.7 305.2 130.5C319.7 123.3 334.3 109.7 349 96.8C363.7 84 378.3 72 392.8 76C407.3 80 421.7 100 436.2 106.5C450.7 113 465.3 106 480 105.5C494.7 105 509.3 111 523.8 112.2C538.3 113.3 552.7 109.7 567.2 109.3C581.7 109 596.3 112 611 105.8C625.7 99.7 640.3 84.3 654.8 78.2C669.3 72 683.7 75 698.2 84.2C712.7 93.3 727.3 108.7 741.8 107.8C756.3 107 770.7 90 785.2 86.5C799.7 83 814.3 93 829 101.8C843.7 110.7 858.3 118.3 872.8 111C887.3 103.7 901.7 81.3 916.2 73.2C930.7 65 945.3 71 952.7 74L960 77L960 0L952.7 0C945.3 0 930.7 0 916.2 0C901.7 0 887.3 0 872.8 0C858.3 0 843.7 0 829 0C814.3 0 799.7 0 785.2 0C770.7 0 756.3 0 741.8 0C727.3 0 712.7 0 698.2 0C683.7 0 669.3 0 654.8 0C640.3 0 625.7 0 611 0C596.3 0 581.7 0 567.2 0C552.7 0 538.3 0 523.8 0C509.3 0 494.7 0 480 0C465.3 0 450.7 0 436.2 0C421.7 0 407.3 0 392.8 0C378.3 0 363.7 0 349 0C334.3 0 319.7 0 305.2 0C290.7 0 276.3 0 261.8 0C247.3 0 232.7 0 218.2 0C203.7 0 189.3 0 174.8 0C160.3 0 145.7 0 131 0C116.3 0 101.7 0 87.2 0C72.7 0 58.3 0 43.8 0C29.3 0 14.7 0 7.3 0L0 0Z" fill="#8792a1"></path><path d="M0 45L7.3 44.8C14.7 44.7 29.3 44.3 43.8 52.2C58.3 60 72.7 76 87.2 91.3C101.7 106.7 116.3 121.3 131 125.8C145.7 130.3 160.3 124.7 174.8 109.8C189.3 95 203.7 71 218.2 66.3C232.7 61.7 247.3 76.3 261.8 81.2C276.3 86 290.7 81 305.2 80.2C319.7 79.3 334.3 82.7 349 86C363.7 89.3 378.3 92.7 392.8 94.2C407.3 95.7 421.7 95.3 436.2 95.7C450.7 96 465.3 97 480 99.7C494.7 102.3 509.3 106.7 523.8 105.3C538.3 104 552.7 97 567.2 98.2C581.7 99.3 596.3 108.7 611 106.7C625.7 104.7 640.3 91.3 654.8 92.3C669.3 93.3 683.7 108.7 698.2 115.7C712.7 122.7 727.3 121.3 741.8 108.2C756.3 95 770.7 70 785.2 63.2C799.7 56.3 814.3 67.7 829 76.3C843.7 85 858.3 91 872.8 88.3C887.3 85.7 901.7 74.3 916.2 69.2C930.7 64 945.3 65 952.7 65.5L960 66L960 0L952.7 0C945.3 0 930.7 0 916.2 0C901.7 0 887.3 0 872.8 0C858.3 0 843.7 0 829 0C814.3 0 799.7 0 785.2 0C770.7 0 756.3 0 741.8 0C727.3 0 712.7 0 698.2 0C683.7 0 669.3 0 654.8 0C640.3 0 625.7 0 611 0C596.3 0 581.7 0 567.2 0C552.7 0 538.3 0 523.8 0C509.3 0 494.7 0 480 0C465.3 0 450.7 0 436.2 0C421.7 0 407.3 0 392.8 0C378.3 0 363.7 0 349 0C334.3 0 319.7 0 305.2 0C290.7 0 276.3 0 261.8 0C247.3 0 232.7 0 218.2 0C203.7 0 189.3 0 174.8 0C160.3 0 145.7 0 131 0C116.3 0 101.7 0 87.2 0C72.7 0 58.3 0 43.8 0C29.3 0 14.7 0 7.3 0L0 0Z" fill="#808b9c"></path><path d="M0 59L7.3 68.2C14.7 77.3 29.3 95.7 43.8 105.8C58.3 116 72.7 118 87.2 108.2C101.7 98.3 116.3 76.7 131 76.7C145.7 76.7 160.3 98.3 174.8 106.8C189.3 115.3 203.7 110.7 218.2 109.2C232.7 107.7 247.3 109.3 261.8 101.3C276.3 93.3 290.7 75.7 305.2 64.8C319.7 54 334.3 50 349 57.8C363.7 65.7 378.3 85.3 392.8 84C407.3 82.7 421.7 60.3 436.2 49C450.7 37.7 465.3 37.3 480 48.8C494.7 60.3 509.3 83.7 523.8 88.5C538.3 93.3 552.7 79.7 567.2 78.8C581.7 78 596.3 90 611 95.7C625.7 101.3 640.3 100.7 654.8 93.3C669.3 86 683.7 72 698.2 61.8C712.7 51.7 727.3 45.3 741.8 54.7C756.3 64 770.7 89 785.2 98.2C799.7 107.3 814.3 100.7 829 89.8C843.7 79 858.3 64 872.8 62.8C887.3 61.7 901.7 74.3 916.2 76.5C930.7 78.7 945.3 70.3 952.7 66.2L960 62L960 0L952.7 0C945.3 0 930.7 0 916.2 0C901.7 0 887.3 0 872.8 0C858.3 0 843.7 0 829 0C814.3 0 799.7 0 785.2 0C770.7 0 756.3 0 741.8 0C727.3 0 712.7 0 698.2 0C683.7 0 669.3 0 654.8 0C640.3 0 625.7 0 611 0C596.3 0 581.7 0 567.2 0C552.7 0 538.3 0 523.8 0C509.3 0 494.7 0 480 0C465.3 0 450.7 0 436.2 0C421.7 0 407.3 0 392.8 0C378.3 0 363.7 0 349 0C334.3 0 319.7 0 305.2 0C290.7 0 276.3 0 261.8 0C247.3 0 232.7 0 218.2 0C203.7 0 189.3 0 174.8 0C160.3 0 145.7 0 131 0C116.3 0 101.7 0 87.2 0C72.7 0 58.3 0 43.8 0C29.3 0 14.7 0 7.3 0L0 0Z" fill="#798496"></path><path d="M0 97L7.3 97.8C14.7 98.7 29.3 100.3 43.8 97.5C58.3 94.7 72.7 87.3 87.2 83.5C101.7 79.7 116.3 79.3 131 80.5C145.7 81.7 160.3 84.3 174.8 87.3C189.3 90.3 203.7 93.7 218.2 87C232.7 80.3 247.3 63.7 261.8 64.3C276.3 65 290.7 83 305.2 88.3C319.7 93.7 334.3 86.3 349 87.2C363.7 88 378.3 97 392.8 96.5C407.3 96 421.7 86 436.2 85.7C450.7 85.3 465.3 94.7 480 93.2C494.7 91.7 509.3 79.3 523.8 74C538.3 68.7 552.7 70.3 567.2 67.5C581.7 64.7 596.3 57.3 611 58C625.7 58.7 640.3 67.3 654.8 72.5C669.3 77.7 683.7 79.3 698.2 84.2C712.7 89 727.3 97 741.8 98.8C756.3 100.7 770.7 96.3 785.2 92.8C799.7 89.3 814.3 86.7 829 81.3C843.7 76 858.3 68 872.8 59.7C887.3 51.3 901.7 42.7 916.2 45.5C930.7 48.3 945.3 62.7 952.7 69.8L960 77L960 0L952.7 0C945.3 0 930.7 0 916.2 0C901.7 0 887.3 0 872.8 0C858.3 0 843.7 0 829 0C814.3 0 799.7 0 785.2 0C770.7 0 756.3 0 741.8 0C727.3 0 712.7 0 698.2 0C683.7 0 669.3 0 654.8 0C640.3 0 625.7 0 611 0C596.3 0 581.7 0 567.2 0C552.7 0 538.3 0 523.8 0C509.3 0 494.7 0 480 0C465.3 0 450.7 0 436.2 0C421.7 0 407.3 0 392.8 0C378.3 0 363.7 0 349 0C334.3 0 319.7 0 305.2 0C290.7 0 276.3 0 261.8 0C247.3 0 232.7 0 218.2 0C203.7 0 189.3 0 174.8 0C160.3 0 145.7 0 131 0C116.3 0 101.7 0 87.2 0C72.7 0 58.3 0 43.8 0C29.3 0 14.7 0 7.3 0L0 0Z" fill="#737e8f"></path><path d="M0 39L7.3 41.5C14.7 44 29.3 49 43.8 55.7C58.3 62.3 72.7 70.7 87.2 71.3C101.7 72 116.3 65 131 58C145.7 51 160.3 44 174.8 48C189.3 52 203.7 67 218.2 72.3C232.7 77.7 247.3 73.3 261.8 69.2C276.3 65 290.7 61 305.2 60.2C319.7 59.3 334.3 61.7 349 57.3C363.7 53 378.3 42 392.8 42.7C407.3 43.3 421.7 55.7 436.2 54.8C450.7 54 465.3 40 480 39C494.7 38 509.3 50 523.8 54C538.3 58 552.7 54 567.2 52.5C581.7 51 596.3 52 611 53.3C625.7 54.7 640.3 56.3 654.8 60.8C669.3 65.3 683.7 72.7 698.2 71.2C712.7 69.7 727.3 59.3 741.8 50.3C756.3 41.3 770.7 33.7 785.2 39.7C799.7 45.7 814.3 65.3 829 71.3C843.7 77.3 858.3 69.7 872.8 62.7C887.3 55.7 901.7 49.3 916.2 53.5C930.7 57.7 945.3 72.3 952.7 79.7L960 87L960 0L952.7 0C945.3 0 930.7 0 916.2 0C901.7 0 887.3 0 872.8 0C858.3 0 843.7 0 829 0C814.3 0 799.7 0 785.2 0C770.7 0 756.3 0 741.8 0C727.3 0 712.7 0 698.2 0C683.7 0 669.3 0 654.8 0C640.3 0 625.7 0 611 0C596.3 0 581.7 0 567.2 0C552.7 0 538.3 0 523.8 0C509.3 0 494.7 0 480 0C465.3 0 450.7 0 436.2 0C421.7 0 407.3 0 392.8 0C378.3 0 363.7 0 349 0C334.3 0 319.7 0 305.2 0C290.7 0 276.3 0 261.8 0C247.3 0 232.7 0 218.2 0C203.7 0 189.3 0 174.8 0C160.3 0 145.7 0 131 0C116.3 0 101.7 0 87.2 0C72.7 0 58.3 0 43.8 0C29.3 0 14.7 0 7.3 0L0 0Z" fill="#6d7788"></path><path d="M0 39L7.3 38.2C14.7 37.3 29.3 35.7 43.8 40.2C58.3 44.7 72.7 55.3 87.2 57.5C101.7 59.7 116.3 53.3 131 48.8C145.7 44.3 160.3 41.7 174.8 38.8C189.3 36 203.7 33 218.2 39C232.7 45 247.3 60 261.8 66C276.3 72 290.7 69 305.2 60C319.7 51 334.3 36 349 28C363.7 20 378.3 19 392.8 24.2C407.3 29.3 421.7 40.7 436.2 41.8C450.7 43 465.3 34 480 34C494.7 34 509.3 43 523.8 50.7C538.3 58.3 552.7 64.7 567.2 60.7C581.7 56.7 596.3 42.3 611 37.2C625.7 32 640.3 36 654.8 36.7C669.3 37.3 683.7 34.7 698.2 40.3C712.7 46 727.3 60 741.8 57.8C756.3 55.7 770.7 37.3 785.2 36.7C799.7 36 814.3 53 829 57.2C843.7 61.3 858.3 52.7 872.8 47C887.3 41.3 901.7 38.7 916.2 39.2C930.7 39.7 945.3 43.3 952.7 45.2L960 47L960 0L952.7 0C945.3 0 930.7 0 916.2 0C901.7 0 887.3 0 872.8 0C858.3 0 843.7 0 829 0C814.3 0 799.7 0 785.2 0C770.7 0 756.3 0 741.8 0C727.3 0 712.7 0 698.2 0C683.7 0 669.3 0 654.8 0C640.3 0 625.7 0 611 0C596.3 0 581.7 0 567.2 0C552.7 0 538.3 0 523.8 0C509.3 0 494.7 0 480 0C465.3 0 450.7 0 436.2 0C421.7 0 407.3 0 392.8 0C378.3 0 363.7 0 349 0C334.3 0 319.7 0 305.2 0C290.7 0 276.3 0 261.8 0C247.3 0 232.7 0 218.2 0C203.7 0 189.3 0 174.8 0C160.3 0 145.7 0 131 0C116.3 0 101.7 0 87.2 0C72.7 0 58.3 0 43.8 0C29.3 0 14.7 0 7.3 0L0 0Z" fill="#677181"></path><path d="M0 50L7.3 45.7C14.7 41.3 29.3 32.7 43.8 33.2C58.3 33.7 72.7 43.3 87.2 45C101.7 46.7 116.3 40.3 131 39.5C145.7 38.7 160.3 43.3 174.8 41.2C189.3 39 203.7 30 218.2 28.3C232.7 26.7 247.3 32.3 261.8 37.2C276.3 42 290.7 46 305.2 49.3C319.7 52.7 334.3 55.3 349 55.5C363.7 55.7 378.3 53.3 392.8 46.2C407.3 39 421.7 27 436.2 23.5C450.7 20 465.3 25 480 30.8C494.7 36.7 509.3 43.3 523.8 46.2C538.3 49 552.7 48 567.2 45.2C581.7 42.3 596.3 37.7 611 38.5C625.7 39.3 640.3 45.7 654.8 43C669.3 40.3 683.7 28.7 698.2 24C712.7 19.3 727.3 21.7 741.8 25.3C756.3 29 770.7 34 785.2 39.7C799.7 45.3 814.3 51.7 829 52.8C843.7 54 858.3 50 872.8 45.5C887.3 41 901.7 36 916.2 36.7C930.7 37.3 945.3 43.7 952.7 46.8L960 50L960 0L952.7 0C945.3 0 930.7 0 916.2 0C901.7 0 887.3 0 872.8 0C858.3 0 843.7 0 829 0C814.3 0 799.7 0 785.2 0C770.7 0 756.3 0 741.8 0C727.3 0 712.7 0 698.2 0C683.7 0 669.3 0 654.8 0C640.3 0 625.7 0 611 0C596.3 0 581.7 0 567.2 0C552.7 0 538.3 0 523.8 0C509.3 0 494.7 0 480 0C465.3 0 450.7 0 436.2 0C421.7 0 407.3 0 392.8 0C378.3 0 363.7 0 349 0C334.3 0 319.7 0 305.2 0C290.7 0 276.3 0 261.8 0C247.3 0 232.7 0 218.2 0C203.7 0 189.3 0 174.8 0C160.3 0 145.7 0 131 0C116.3 0 101.7 0 87.2 0C72.7 0 58.3 0 43.8 0C29.3 0 14.7 0 7.3 0L0 0Z" fill="#616a7a"></path><path d="M0 38L7.3 32.5C14.7 27 29.3 16 43.8 12.2C58.3 8.3 72.7 11.7 87.2 15.3C101.7 19 116.3 23 131 27.5C145.7 32 160.3 37 174.8 39.5C189.3 42 203.7 42 218.2 41.8C232.7 41.7 247.3 41.3 261.8 36.7C276.3 32 290.7 23 305.2 22.3C319.7 21.7 334.3 29.3 349 31C363.7 32.7 378.3 28.3 392.8 24.7C407.3 21 421.7 18 436.2 19.8C450.7 21.7 465.3 28.3 480 30.2C494.7 32 509.3 29 523.8 26.8C538.3 24.7 552.7 23.3 567.2 24.2C581.7 25 596.3 28 611 25.5C625.7 23 640.3 15 654.8 16.5C669.3 18 683.7 29 698.2 34.7C712.7 40.3 727.3 40.7 741.8 39C756.3 37.3 770.7 33.7 785.2 33.2C799.7 32.7 814.3 35.3 829 37.2C843.7 39 858.3 40 872.8 39.7C887.3 39.3 901.7 37.7 916.2 33.3C930.7 29 945.3 22 952.7 18.5L960 15L960 0L952.7 0C945.3 0 930.7 0 916.2 0C901.7 0 887.3 0 872.8 0C858.3 0 843.7 0 829 0C814.3 0 799.7 0 785.2 0C770.7 0 756.3 0 741.8 0C727.3 0 712.7 0 698.2 0C683.7 0 669.3 0 654.8 0C640.3 0 625.7 0 611 0C596.3 0 581.7 0 567.2 0C552.7 0 538.3 0 523.8 0C509.3 0 494.7 0 480 0C465.3 0 450.7 0 436.2 0C421.7 0 407.3 0 392.8 0C378.3 0 363.7 0 349 0C334.3 0 319.7 0 305.2 0C290.7 0 276.3 0 261.8 0C247.3 0 232.7 0 218.2 0C203.7 0 189.3 0 174.8 0C160.3 0 145.7 0 131 0C116.3 0 101.7 0 87.2 0C72.7 0 58.3 0 43.8 0C29.3 0 14.7 0 7.3 0L0 0Z" fill="#5c6473"></path><path d="M0 26L7.3 24.5C14.7 23 29.3 20 43.8 17.2C58.3 14.3 72.7 11.7 87.2 9.5C101.7 7.3 116.3 5.7 131 4.2C145.7 2.7 160.3 1.3 174.8 2.5C189.3 3.7 203.7 7.3 218.2 9.5C232.7 11.7 247.3 12.3 261.8 12.2C276.3 12 290.7 11 305.2 10.5C319.7 10 334.3 10 349 8.7C363.7 7.3 378.3 4.7 392.8 6.8C407.3 9 421.7 16 436.2 18.8C450.7 21.7 465.3 20.3 480 17.8C494.7 15.3 509.3 11.7 523.8 9.7C538.3 7.7 552.7 7.3 567.2 9.8C581.7 12.3 596.3 17.7 611 16.5C625.7 15.3 640.3 7.7 654.8 7.3C669.3 7 683.7 14 698.2 16.2C712.7 18.3 727.3 15.7 741.8 12.5C756.3 9.3 770.7 5.7 785.2 4.8C799.7 4 814.3 6 829 8.7C843.7 11.3 858.3 14.7 872.8 17.7C887.3 20.7 901.7 23.3 916.2 24.5C930.7 25.7 945.3 25.3 952.7 25.2L960 25L960 0L952.7 0C945.3 0 930.7 0 916.2 0C901.7 0 887.3 0 872.8 0C858.3 0 843.7 0 829 0C814.3 0 799.7 0 785.2 0C770.7 0 756.3 0 741.8 0C727.3 0 712.7 0 698.2 0C683.7 0 669.3 0 654.8 0C640.3 0 625.7 0 611 0C596.3 0 581.7 0 567.2 0C552.7 0 538.3 0 523.8 0C509.3 0 494.7 0 480 0C465.3 0 450.7 0 436.2 0C421.7 0 407.3 0 392.8 0C378.3 0 363.7 0 349 0C334.3 0 319.7 0 305.2 0C290.7 0 276.3 0 261.8 0C247.3 0 232.7 0 218.2 0C203.7 0 189.3 0 174.8 0C160.3 0 145.7 0 131 0C116.3 0 101.7 0 87.2 0C72.7 0 58.3 0 43.8 0C29.3 0 14.7 0 7.3 0L0 0Z" fill="#565e6c"></path></svg>